<?xml version="1.0" encoding="UTF-8"?>
<!DOCTYPE svg PUBLIC "-//W3C//DTD SVG 1.1//EN" "http://www.w3.org/Graphics/SVG/1.1/DTD/svg11.dtd">
<!-- Creator: CorelDRAW X7 -->
<svg xmlns="http://www.w3.org/2000/svg" xml:space="preserve" width="8.5in" height="11in" version="1.1" style="shape-rendering:geometricPrecision; text-rendering:geometricPrecision; image-rendering:optimizeQuality; fill-rule:evenodd; clip-rule:evenodd"
viewBox="0 0 8500 11000"
 xmlns:xlink="http://www.w3.org/1999/xlink">
 <defs>
  <style type="text/css">
   <![CDATA[
    .fil0 {fill:black}
   ]]>
  </style>
 </defs>
 <g id="Layer_x0020_1">
  <metadata id="CorelCorpID_0Corel-Layer"/>
  <g id="_2840675708384">
   <g>
    <path class="fil0" d="M1032 7913c0,709 648,1315 1357,1315l4004 0c700,0 1366,-606 1366,-1315l0 -5499 -1332 0c0,-8 9,-26 9,-34 0,-1124 -917,-2041 -2041,-2041 -1124,0 -2031,917 -2031,2041 0,8 0,26 0,34l-1332 0 0 5499zm5050 -4772c181,0 328,147 328,328 0,182 -147,329 -328,329 -182,0 -329,-147 -329,-329 0,-181 147,-328 329,-328zm-1687 -2050c709,0 1289,580 1289,1289 0,8 0,26 0,34l-2577 0c0,-8 0,-26 0,-34 0,-709 579,-1289 1288,-1289zm-1677 2050c182,0 329,147 329,328 0,182 -147,329 -329,329 -182,0 -329,-147 -329,-329 0,-181 147,-328 329,-328z"/>
   </g>
  </g>
  <g id="_2840675708672">
  </g>
  <g id="_2840675707776">
  </g>
  <g id="_2840675707680">
  </g>
  <g id="_2840675709024">
  </g>
  <g id="_2840675707168">
  </g>
  <g id="_2840675706848">
  </g>
  <g id="_2840675703456">
  </g>
  <g id="_2840675703616">
  </g>
  <g id="_2840675704736">
  </g>
  <g id="_2840675701568">
  </g>
  <g id="_2840675701952">
  </g>
  <g id="_2840675765248">
  </g>
  <g id="_2840675765312">
  </g>
  <g id="_2840675766080">
  </g>
  <g id="_2840675765024">
  </g>
 </g>
</svg>
