<?xml version="1.0" standalone="no"?><!-- Generator: Gravit.io --><svg xmlns="http://www.w3.org/2000/svg" xmlns:xlink="http://www.w3.org/1999/xlink" style="isolation:isolate" viewBox="0 0 23.114 13.848" width="23.114" height="13.848"><g><path d=" M 7.382 0.107 C 7.414 0.196 7.412 0.272 7.376 0.336 C 7.34 0.399 7.322 0.476 7.322 0.564 C 7.201 0.868 7.095 1.191 7.004 1.536 C 6.912 1.879 6.822 2.224 6.733 2.567 C 7.669 2.335 8.612 2.119 9.56 1.919 C 10.508 1.719 11.482 1.523 12.482 1.331 C 12.522 1.323 12.584 1.307 12.668 1.283 C 12.752 1.259 12.802 1.279 12.818 1.343 C 12.826 1.407 12.782 1.447 12.686 1.463 C 12.59 1.479 12.526 1.491 12.494 1.499 C 11.518 1.715 10.54 1.921 9.56 2.117 C 8.58 2.313 7.626 2.539 6.698 2.795 C 6.506 3.611 6.348 4.463 6.224 5.352 C 6.1 6.24 5.998 7.152 5.917 8.088 C 5.893 8.32 5.874 8.558 5.858 8.802 C 5.842 9.046 5.838 9.292 5.846 9.54 C 5.878 10.148 5.902 10.758 5.918 11.37 C 5.934 11.982 5.934 12.604 5.918 13.236 C 5.918 13.348 5.914 13.464 5.906 13.584 C 5.898 13.704 5.85 13.792 5.762 13.848 C 5.674 13.784 5.624 13.7 5.612 13.596 C 5.6 13.492 5.586 13.392 5.57 13.296 C 5.522 12.744 5.5 12.16 5.504 11.544 C 5.508 10.928 5.522 10.328 5.546 9.744 C 5.562 9.504 5.578 9.268 5.594 9.036 C 5.61 8.804 5.61 8.572 5.594 8.34 C 5.578 8.052 5.546 7.76 5.498 7.464 C 5.45 7.168 5.394 6.892 5.33 6.635 C 5.234 6.244 5.104 5.879 4.94 5.544 C 4.776 5.208 4.562 4.919 4.298 4.68 C 4.034 4.44 3.714 4.258 3.338 4.133 C 2.962 4.009 2.514 3.967 1.993 4.007 C 1.834 4.023 1.67 4.058 1.501 4.109 C 1.334 4.162 1.158 4.211 0.973 4.259 C 0.901 4.275 0.822 4.294 0.734 4.314 C 0.646 4.334 0.553 4.352 0.457 4.368 C 0.417 4.384 0.371 4.398 0.319 4.41 C 0.267 4.422 0.219 4.43 0.175 4.434 C 0.131 4.438 0.093 4.432 0.061 4.416 C 0.029 4.399 0.009 4.372 0.001 4.332 C -0.007 4.284 0.017 4.24 0.073 4.199 C 0.129 4.159 0.195 4.127 0.271 4.103 C 0.347 4.079 0.425 4.059 0.505 4.043 C 0.585 4.027 0.646 4.015 0.686 4.007 C 0.83 3.967 0.972 3.933 1.112 3.905 C 1.252 3.877 1.39 3.855 1.526 3.839 C 1.83 3.799 2.11 3.743 2.366 3.671 C 2.622 3.599 2.882 3.531 3.146 3.467 C 3.706 3.331 4.246 3.197 4.766 3.065 C 5.286 2.933 5.818 2.803 6.362 2.675 C 6.426 2.371 6.508 2.035 6.608 1.667 C 6.708 1.299 6.81 0.951 6.914 0.623 C 6.938 0.559 6.96 0.481 6.98 0.389 C 7 0.297 7.028 0.215 7.064 0.143 C 7.1 0.071 7.144 0.025 7.196 0.005 C 7.248 -0.015 7.31 0.02 7.382 0.107 Z  M 6.302 2.892 C 5.71 3.052 5.106 3.204 4.49 3.348 C 3.874 3.492 3.274 3.652 2.69 3.828 C 3.202 3.868 3.63 3.992 3.974 4.2 C 4.318 4.408 4.604 4.674 4.832 4.998 C 5.06 5.322 5.24 5.694 5.372 6.114 C 5.504 6.534 5.61 6.98 5.69 7.452 C 5.746 6.652 5.832 5.87 5.948 5.106 C 6.064 4.342 6.182 3.604 6.302 2.892 Z " fill="rgb(68,86,116)"/><path d=" M 8.486 2.255 C 8.494 2.383 8.462 2.501 8.39 2.609 C 8.318 2.717 8.258 2.827 8.21 2.939 C 7.874 3.715 7.611 4.567 7.424 5.496 C 7.236 6.423 7.082 7.392 6.962 8.399 C 7.05 8.167 7.138 7.929 7.226 7.685 C 7.313 7.441 7.422 7.215 7.55 7.007 C 7.646 6.767 7.765 6.555 7.909 6.371 C 7.942 6.331 7.974 6.283 8.006 6.227 C 8.038 6.171 8.074 6.118 8.114 6.065 C 8.153 6.013 8.2 5.973 8.252 5.945 C 8.304 5.917 8.366 5.907 8.438 5.915 C 8.51 5.923 8.566 5.961 8.606 6.029 C 8.645 6.097 8.677 6.179 8.702 6.275 C 8.725 6.371 8.744 6.473 8.756 6.581 C 8.768 6.689 8.782 6.787 8.798 6.875 C 8.805 6.939 8.817 7.023 8.833 7.127 C 8.849 7.231 8.872 7.335 8.9 7.439 C 8.928 7.543 8.964 7.631 9.008 7.703 C 9.052 7.775 9.106 7.815 9.17 7.823 C 9.258 7.831 9.352 7.795 9.452 7.715 C 9.552 7.635 9.626 7.571 9.674 7.523 C 9.738 7.459 9.802 7.391 9.866 7.319 C 9.93 7.247 9.994 7.171 10.058 7.091 C 10.202 6.955 10.332 6.815 10.448 6.671 C 10.564 6.527 10.702 6.399 10.862 6.287 C 10.942 6.199 11.028 6.095 11.12 5.975 C 11.212 5.855 11.338 5.799 11.498 5.807 C 11.57 5.807 11.628 5.831 11.672 5.879 C 11.715 5.927 11.742 5.981 11.75 6.041 C 11.757 6.101 11.75 6.163 11.726 6.227 C 11.702 6.291 11.662 6.347 11.606 6.395 C 11.622 6.531 11.632 6.673 11.636 6.821 C 11.64 6.969 11.65 7.111 11.666 7.247 C 11.682 7.383 11.708 7.507 11.744 7.619 C 11.779 7.731 11.842 7.819 11.93 7.883 C 12.154 7.819 12.346 7.711 12.506 7.559 C 12.666 7.407 12.822 7.255 12.974 7.103 C 13.086 6.991 13.198 6.879 13.31 6.767 C 13.422 6.655 13.542 6.543 13.67 6.431 C 13.709 6.399 13.75 6.363 13.789 6.323 C 13.829 6.283 13.881 6.28 13.946 6.311 C 13.962 6.375 13.943 6.425 13.891 6.461 C 13.84 6.497 13.793 6.531 13.753 6.563 C 13.497 6.819 13.235 7.085 12.968 7.361 C 12.7 7.637 12.394 7.863 12.05 8.039 C 12.01 8.039 11.972 8.039 11.936 8.039 C 11.9 8.039 11.862 8.035 11.821 8.027 C 11.734 7.963 11.665 7.877 11.617 7.769 C 11.569 7.661 11.535 7.541 11.515 7.409 C 11.494 7.277 11.481 7.139 11.473 6.995 C 11.465 6.851 11.456 6.707 11.449 6.563 C 11.378 6.635 11.314 6.719 11.258 6.815 C 11.202 6.911 11.144 7.005 11.084 7.097 C 11.024 7.189 10.954 7.269 10.874 7.337 C 10.794 7.405 10.69 7.451 10.562 7.475 C 10.466 7.435 10.424 7.355 10.436 7.235 C 10.448 7.115 10.474 7.015 10.514 6.935 C 10.426 7.007 10.34 7.093 10.256 7.193 C 10.172 7.293 10.088 7.397 10.003 7.505 C 9.919 7.613 9.83 7.715 9.734 7.811 C 9.638 7.907 9.534 7.983 9.422 8.039 C 9.27 8.103 9.134 8.105 9.014 8.045 C 8.894 7.985 8.802 7.891 8.738 7.763 C 8.682 7.659 8.642 7.535 8.618 7.391 C 8.594 7.247 8.572 7.101 8.552 6.953 C 8.532 6.805 8.512 6.659 8.492 6.515 C 8.471 6.371 8.442 6.243 8.402 6.131 C 8.266 6.203 8.156 6.307 8.072 6.443 C 7.988 6.58 7.906 6.715 7.826 6.852 C 7.618 7.195 7.444 7.556 7.304 7.932 C 7.163 8.308 7.038 8.728 6.926 9.192 C 6.909 9.264 6.89 9.356 6.865 9.468 C 6.842 9.58 6.801 9.636 6.746 9.636 C 6.698 9.636 6.668 9.606 6.656 9.546 C 6.643 9.486 6.642 9.416 6.65 9.336 C 6.657 9.256 6.668 9.18 6.679 9.108 C 6.692 9.036 6.698 8.98 6.698 8.94 C 6.778 8.02 6.886 7.12 7.022 6.24 C 7.157 5.36 7.329 4.524 7.538 3.732 C 7.522 3.708 7.502 3.692 7.477 3.684 C 7.453 3.676 7.438 3.652 7.429 3.612 C 7.422 3.556 7.429 3.492 7.453 3.42 C 7.477 3.348 7.507 3.276 7.543 3.204 C 7.579 3.132 7.615 3.064 7.651 3 C 7.688 2.936 7.714 2.884 7.73 2.843 C 7.801 2.707 7.868 2.583 7.928 2.471 C 7.988 2.359 8.042 2.251 8.09 2.147 C 8.154 2.091 8.23 2.077 8.318 2.105 C 8.406 2.134 8.462 2.184 8.486 2.255 Z  M 11.378 6.168 C 11.058 6.408 10.821 6.76 10.67 7.224 C 10.837 7.112 10.971 6.966 11.071 6.786 C 11.171 6.606 11.289 6.44 11.425 6.288 C 11.409 6.272 11.405 6.248 11.413 6.216 C 11.422 6.184 11.41 6.168 11.378 6.168 Z " fill="rgb(68,86,116)"/><path d=" M 13.454 8.016 C 13.598 7.688 13.746 7.366 13.898 7.05 C 14.05 6.734 14.214 6.432 14.39 6.144 C 14.469 6.064 14.533 5.972 14.582 5.868 C 14.629 5.764 14.718 5.696 14.846 5.664 C 14.934 5.68 14.987 5.734 15.007 5.826 C 15.027 5.918 15.041 6.008 15.05 6.096 C 15.074 6.281 15.092 6.466 15.103 6.654 C 15.115 6.842 15.146 7.02 15.193 7.188 C 15.218 7.252 15.251 7.324 15.295 7.404 C 15.34 7.484 15.393 7.532 15.457 7.548 C 15.513 7.556 15.573 7.542 15.637 7.506 C 15.701 7.47 15.763 7.427 15.824 7.379 C 15.884 7.331 15.94 7.279 15.992 7.223 C 16.043 7.167 16.086 7.127 16.118 7.103 C 16.229 6.999 16.33 6.907 16.418 6.827 C 16.506 6.747 16.598 6.667 16.694 6.587 C 16.718 6.563 16.748 6.535 16.784 6.503 C 16.82 6.471 16.858 6.443 16.898 6.419 C 16.938 6.395 16.98 6.383 17.024 6.383 C 17.068 6.383 17.11 6.403 17.15 6.443 C 17.15 6.491 17.13 6.519 17.09 6.527 C 17.05 6.535 17.01 6.551 16.97 6.575 C 16.842 6.679 16.72 6.787 16.604 6.899 C 16.488 7.011 16.374 7.123 16.262 7.235 C 16.198 7.283 16.138 7.337 16.082 7.397 C 16.026 7.457 15.968 7.513 15.908 7.565 C 15.848 7.617 15.778 7.661 15.698 7.697 C 15.618 7.733 15.522 7.751 15.41 7.751 C 15.266 7.695 15.158 7.599 15.086 7.463 C 15.014 7.327 14.964 7.171 14.936 6.995 C 14.908 6.819 14.89 6.633 14.882 6.437 C 14.874 6.241 14.858 6.051 14.834 5.867 C 14.73 5.931 14.652 6.019 14.6 6.131 C 14.548 6.243 14.482 6.347 14.402 6.443 C 14.354 6.555 14.3 6.665 14.24 6.773 C 14.18 6.881 14.118 6.991 14.054 7.103 C 13.974 7.271 13.896 7.445 13.82 7.625 C 13.744 7.805 13.674 7.987 13.61 8.171 C 13.57 8.219 13.544 8.277 13.532 8.345 C 13.52 8.413 13.47 8.447 13.382 8.447 C 13.286 8.415 13.238 8.355 13.238 8.267 C 13.238 8.179 13.238 8.103 13.238 8.039 C 13.238 7.607 13.28 7.187 13.364 6.779 C 13.448 6.371 13.534 5.987 13.622 5.627 C 13.662 5.467 13.7 5.315 13.736 5.171 C 13.772 5.027 13.834 4.903 13.922 4.799 C 13.986 4.759 14.046 4.755 14.102 4.787 C 14.158 4.819 14.194 4.863 14.21 4.919 C 14.193 5.047 14.161 5.171 14.114 5.292 C 14.066 5.413 14.022 5.532 13.982 5.652 C 13.87 6.012 13.764 6.382 13.664 6.762 C 13.564 7.142 13.494 7.56 13.454 8.016 Z " fill="rgb(68,86,116)"/><path d=" M 17.845 2.399 C 17.829 2.583 17.793 2.763 17.737 2.939 C 17.681 3.115 17.621 3.295 17.557 3.479 C 17.397 4.015 17.251 4.563 17.119 5.123 C 16.987 5.683 16.873 6.271 16.777 6.887 C 16.801 6.911 16.831 6.919 16.867 6.911 C 16.903 6.903 16.937 6.895 16.969 6.887 C 17.041 6.695 17.111 6.487 17.179 6.263 C 17.247 6.039 17.329 5.815 17.425 5.591 C 17.473 5.503 17.523 5.413 17.575 5.321 C 17.627 5.229 17.685 5.131 17.749 5.027 C 17.789 4.971 17.839 4.907 17.899 4.835 C 17.958 4.763 18.021 4.711 18.085 4.679 C 18.149 4.647 18.208 4.643 18.265 4.667 C 18.321 4.691 18.368 4.771 18.408 4.907 C 18.408 5.051 18.376 5.225 18.312 5.429 C 18.248 5.633 18.156 5.841 18.036 6.053 C 17.916 6.265 17.774 6.463 17.611 6.647 C 17.447 6.831 17.272 6.975 17.089 7.079 C 17.065 7.159 17.041 7.247 17.017 7.343 C 16.993 7.439 16.985 7.499 16.993 7.523 C 17.025 7.611 17.091 7.713 17.191 7.829 C 17.291 7.945 17.381 8.027 17.461 8.075 C 17.589 8.131 17.717 8.139 17.845 8.099 C 17.989 8.059 18.141 7.985 18.301 7.877 C 18.461 7.769 18.615 7.649 18.763 7.517 C 18.911 7.385 19.051 7.249 19.183 7.109 C 19.315 6.969 19.425 6.847 19.513 6.743 C 19.569 6.695 19.615 6.651 19.651 6.611 C 19.687 6.571 19.725 6.531 19.765 6.491 C 19.805 6.451 19.847 6.407 19.891 6.359 C 19.934 6.311 19.989 6.291 20.053 6.299 C 20.069 6.323 20.071 6.349 20.059 6.377 C 20.047 6.405 20.029 6.435 20.005 6.467 C 19.981 6.499 19.953 6.529 19.921 6.557 C 19.889 6.585 19.869 6.603 19.861 6.611 C 19.709 6.771 19.559 6.933 19.411 7.097 C 19.263 7.261 19.109 7.417 18.949 7.565 C 18.789 7.713 18.621 7.853 18.445 7.985 C 18.269 8.117 18.073 8.223 17.857 8.303 C 17.761 8.344 17.671 8.353 17.587 8.333 C 17.503 8.313 17.421 8.279 17.341 8.231 C 17.261 8.183 17.185 8.127 17.114 8.064 C 17.042 8 16.978 7.936 16.922 7.872 C 16.865 8.216 16.821 8.586 16.789 8.982 C 16.757 9.378 16.729 9.776 16.705 10.176 C 16.697 10.296 16.691 10.42 16.687 10.548 C 16.683 10.676 16.633 10.772 16.537 10.836 C 16.449 10.828 16.397 10.784 16.381 10.704 C 16.366 10.624 16.349 10.552 16.334 10.488 C 16.294 10.256 16.272 10.012 16.268 9.756 C 16.264 9.5 16.27 9.24 16.286 8.976 C 16.302 8.712 16.322 8.452 16.346 8.196 C 16.37 7.94 16.394 7.7 16.418 7.476 C 16.434 7.388 16.45 7.302 16.466 7.218 C 16.481 7.134 16.486 7.064 16.478 7.008 C 16.47 6.952 16.45 6.904 16.418 6.864 C 16.386 6.824 16.374 6.78 16.381 6.732 C 16.39 6.692 16.412 6.668 16.447 6.66 C 16.484 6.652 16.513 6.636 16.537 6.612 C 16.617 6.02 16.717 5.452 16.838 4.908 C 16.958 4.364 17.098 3.836 17.258 3.324 C 17.322 3.156 17.376 2.984 17.42 2.808 C 17.464 2.632 17.526 2.476 17.606 2.34 C 17.646 2.308 17.691 2.3 17.744 2.316 C 17.795 2.332 17.829 2.359 17.845 2.399 Z  M 16.537 10.452 C 16.601 9.996 16.647 9.528 16.676 9.048 C 16.704 8.568 16.754 8.112 16.825 7.68 C 16.801 7.648 16.78 7.614 16.76 7.578 C 16.74 7.542 16.717 7.508 16.694 7.476 C 16.654 7.948 16.608 8.432 16.556 8.928 C 16.504 9.423 16.498 9.932 16.537 10.452 Z  M 16.813 7.14 C 16.821 7.18 16.833 7.21 16.85 7.23 C 16.865 7.25 16.877 7.268 16.886 7.284 C 16.886 7.26 16.89 7.236 16.898 7.212 C 16.906 7.196 16.91 7.18 16.91 7.164 C 16.91 7.148 16.914 7.132 16.922 7.116 C 16.865 7.115 16.829 7.124 16.813 7.14 Z  M 17.173 6.755 C 17.405 6.595 17.615 6.375 17.803 6.095 C 17.991 5.815 18.117 5.499 18.181 5.147 C 18.189 5.107 18.195 5.055 18.199 4.991 C 18.204 4.928 18.193 4.875 18.169 4.835 C 17.897 5.051 17.691 5.331 17.551 5.675 C 17.411 6.02 17.284 6.379 17.173 6.755 Z " fill="rgb(68,86,116)"/><path d=" M 19.824 7.823 C 20.168 7.591 20.516 7.351 20.868 7.103 C 21.22 6.855 21.597 6.635 21.996 6.443 C 22.044 6.419 22.098 6.389 22.158 6.353 C 22.218 6.317 22.28 6.315 22.344 6.347 C 22.344 6.403 22.31 6.445 22.242 6.473 C 22.174 6.501 22.116 6.531 22.068 6.563 C 21.932 6.619 21.819 6.679 21.732 6.743 C 21.085 7.111 20.476 7.523 19.908 7.979 C 19.972 8.139 20.052 8.275 20.148 8.387 C 20.244 8.499 20.312 8.643 20.352 8.819 C 20.344 8.987 20.312 9.131 20.256 9.251 C 20.2 9.371 20.126 9.475 20.034 9.563 C 19.942 9.651 19.838 9.731 19.722 9.803 C 19.606 9.875 19.484 9.939 19.356 9.995 C 19.244 10.043 19.128 10.091 19.008 10.139 C 18.888 10.187 18.766 10.221 18.642 10.241 C 18.518 10.262 18.4 10.263 18.288 10.247 C 18.176 10.231 18.076 10.187 17.988 10.115 C 17.972 10.067 17.956 10.027 17.94 9.995 L 17.94 9.803 C 18.012 9.587 18.111 9.399 18.234 9.239 C 18.359 9.079 18.496 8.931 18.649 8.795 C 18.801 8.659 18.958 8.529 19.123 8.405 C 19.287 8.281 19.444 8.151 19.597 8.015 C 19.549 7.911 19.505 7.809 19.464 7.709 C 19.424 7.609 19.4 7.495 19.393 7.367 C 19.377 7.223 19.388 7.071 19.429 6.911 C 19.469 6.751 19.525 6.603 19.597 6.467 C 19.668 6.331 19.751 6.211 19.842 6.107 C 19.934 6.003 20.024 5.939 20.112 5.915 C 20.168 5.891 20.226 5.895 20.286 5.927 C 20.346 5.959 20.384 6.003 20.4 6.059 C 20.408 6.131 20.399 6.189 20.37 6.233 C 20.342 6.277 20.308 6.317 20.268 6.353 C 20.228 6.389 20.188 6.427 20.148 6.467 C 20.108 6.508 20.084 6.555 20.076 6.611 C 19.956 6.747 19.864 6.925 19.8 7.145 C 19.737 7.366 19.745 7.591 19.824 7.823 Z  M 19.104 9.923 C 19.336 9.811 19.554 9.689 19.758 9.557 C 19.963 9.425 20.1 9.231 20.173 8.975 C 20.141 8.791 20.072 8.643 19.969 8.531 C 19.865 8.419 19.769 8.295 19.681 8.159 C 19.521 8.279 19.361 8.405 19.2 8.537 C 19.04 8.669 18.888 8.807 18.745 8.951 C 18.609 9.079 18.469 9.223 18.324 9.383 C 18.181 9.543 18.104 9.739 18.096 9.971 C 18.144 10.043 18.212 10.087 18.3 10.103 C 18.388 10.119 18.482 10.119 18.582 10.103 C 18.682 10.087 18.778 10.061 18.87 10.025 C 18.964 9.989 19.04 9.956 19.104 9.923 Z " fill="rgb(68,86,116)"/><path d=" M 22.598 7.5 C 22.63 7.564 22.634 7.616 22.61 7.656 C 22.586 7.697 22.55 7.722 22.502 7.734 C 22.454 7.746 22.408 7.742 22.364 7.722 C 22.319 7.702 22.293 7.664 22.286 7.608 C 22.278 7.528 22.312 7.478 22.388 7.458 C 22.464 7.438 22.533 7.452 22.598 7.5 Z  M 23.114 2.268 C 23.05 2.7 22.973 3.136 22.885 3.576 C 22.797 4.016 22.725 4.468 22.669 4.932 C 22.653 5.092 22.635 5.252 22.615 5.412 C 22.595 5.572 22.589 5.728 22.597 5.88 C 22.605 5.952 22.623 6.014 22.651 6.066 C 22.679 6.118 22.677 6.176 22.645 6.24 C 22.549 6.24 22.489 6.198 22.465 6.114 C 22.441 6.03 22.425 5.948 22.417 5.868 C 22.402 5.78 22.399 5.684 22.411 5.58 C 22.423 5.476 22.433 5.38 22.441 5.292 C 22.481 4.828 22.53 4.378 22.585 3.942 C 22.641 3.506 22.697 3.06 22.753 2.604 C 22.769 2.508 22.785 2.414 22.801 2.322 C 22.817 2.23 22.849 2.172 22.897 2.148 C 23.002 2.124 23.072 2.164 23.114 2.268 Z " fill="rgb(68,86,116)"/></g></svg>